<svg xmlns="http://www.w3.org/2000/svg" xmlns:xlink="http://www.w3.org/1999/xlink" width="1920" height="1080" viewBox="0 0 1920 1080"><defs><style>.a{fill:none;}.b{clip-path:url(#d);}.c{fill:#89dab0;}.d{clip-path:url(#a);}.e{clip-path:url(#b);}.f{fill:#fff;}</style><clipPath id="a"><path class="a" d="M0,0H208.811V452.484H0Z"/></clipPath><clipPath id="b"><path class="a" d="M0,0H79.759V139.206H0Z"/></clipPath><clipPath id="d"><rect width="1920" height="1080"/></clipPath></defs><g id="c" class="b"><rect class="f" width="1920" height="1080"/><g transform="translate(-115 287)"><path class="c" d="M304.4,348.32a104.826,104.826,0,0,1-15.116-1.075,124.134,124.134,0,0,1-33.135-9.846,246.22,246.22,0,0,1-29.582-16.157c-13.208-8.3-27.379-17.024-42.625-24.519a109.373,109.373,0,0,0-39.093-11c-4.766-.406-10.447-.832-16.457-.913a1.092,1.092,0,0,1,1.06-.528c.071,0,.144,0,.218,0s.161,0,.236,0a1.97,1.97,0,0,0,.986-.219c-.532,0-1.055-.048-1.562-.094-.452-.041-.878-.08-1.262-.08a2.183,2.183,0,0,0-1.256.285,4.035,4.035,0,0,1-2.232.761,2.2,2.2,0,0,1-.985-.212,9.051,9.051,0,0,0-4.21-.9c-.975,0-1.966.1-2.923.193s-1.96.194-2.929.194q-.161,0-.322,0l-.227,0a18.405,18.405,0,0,0-3.694.509l-.026.005a18.7,18.7,0,0,1-3.783.517c-.155,0-.311,0-.463-.012-.494-.025-1.029-.037-1.635-.037s-1.247.013-1.853.025-1.251.026-1.883.026a19.4,19.4,0,0,1-5.41-.627,5.3,5.3,0,0,0-1.474-.187,17.234,17.234,0,0,0-4.086.691,12.089,12.089,0,0,1-2.891.373,6.373,6.373,0,0,1-2.642-.485,9.5,9.5,0,0,0-4.086-.7c-.235,0-.47,0-.7,0s-.448,0-.671,0a13.825,13.825,0,0,1-2.293-.153,170.241,170.241,0,0,1-18.652-4.1A133.417,133.417,0,0,1,31.8,269.746c-12.223-6.427-21.2-16.43-27.46-30.579A47.692,47.692,0,0,1,0,219.75a44.078,44.078,0,0,1,4.7-19.381l.153-.313c3.223-6.575,6.556-13.375,10.448-19.766A55.685,55.685,0,0,1,24.4,168.849c2.954-2.807,4.871-6.292,6.725-9.663l.021-.039.433-.785c6.168-11.167,12.569-19.594,20.144-26.52,7.914-7.238,17.5-12.989,29.3-17.581,15.512-6.034,31.47-8.121,45.034-9.368l.911-.084c21.544-1.979,43.821-4.025,65.086-9.836,17.82-4.87,31.55-10.5,43.21-17.7,6.1-3.774,10.956-8.661,15.292-13.38,2.9-3.163,5.78-6.436,8.561-9.6,4.981-5.669,10.129-11.528,15.607-16.948,6.858-6.784,12.86-12.217,19.856-16.686,14.559-9.3,28.338-15.206,42.125-18.054A115.54,115.54,0,0,1,360.21,0a79.471,79.471,0,0,1,25.63,4.028c17.089,5.721,28.587,14.892,35.15,28.037,3.5,7.018,5.159,14.949,5.213,24.96.042,7.772-.328,15.662-.686,23.293-.37,7.9-.753,16.068-.68,24.115.017,1.856.021,3.743.024,5.569.017,8.715.035,17.725,1.512,26.523,2.045,12.193,7.6,23.445,16.993,34.4,3.677,4.291,7.546,8.546,11.287,12.661,2.2,2.423,4.481,4.928,6.7,7.414,5.91,6.633,13.36,15.587,18.551,26.034a49.631,49.631,0,0,1,5.475,24.99c-.439,8.03-3.017,16.258-7.663,24.455a105.821,105.821,0,0,1-20.32,25.3c-2.908,2.715-6.034,5.273-9.057,7.747q-.808.661-1.61,1.32a65.99,65.99,0,0,1-10.662,7.136,50.2,50.2,0,0,0-4.525,2.863c-1.346.921-2.739,1.873-4.2,2.69a292.487,292.487,0,0,1-34.205,16.437c-7.164,2.865-14.595,5.245-21.591,7.437-5.514,1.728-11.321,3.233-17.754,4.6-1.462.31-2.951.638-4.39.955l-.025.005c-3.442.758-7,1.54-10.517,2.159a21.312,21.312,0,0,1-3.635.235l-.635,0h-.573a24.1,24.1,0,0,0-3.437.186,119.89,119.89,0,0,1-16.658,1.492c-.579,0-1.122.051-1.412.619l.626.137.015,0,.075.016.6.131C310.621,348.193,307.45,348.32,304.4,348.32Zm4.176-.975c-1.28,0-2.579.075-3.836.148h-.014c-.93.054-1.891.109-2.838.134,2.251.192,4.111.283,5.854.283a39.662,39.662,0,0,0,4.717-.263A22.4,22.4,0,0,0,308.574,347.345Zm-35.194-12.272v0a79.25,79.25,0,0,0,24.909,4.119c2.033,0,4.1-.084,6.132-.248-.676.017-1.273.024-1.824.024-8.877,0-17.666-1.685-26.166-3.314Q274.9,335.362,273.379,335.072ZM124.355,274.244c4.4,0,8.328.072,12.005.219a119.873,119.873,0,0,1,44.462,10.04c16.606,7.334,31.663,16.345,48.221,26.511,9.54,5.856,20.975,12.507,33.453,17.436a113.7,113.7,0,0,0,41.941,7.791c3.236,0,6.56-.126,9.883-.374a250.066,250.066,0,0,0,32.15-4.453,289.889,289.889,0,0,0,82.25-30.089c13.529-7.532,23.5-15.137,31.387-23.933,5.246-5.851,11.123-13.015,14.932-21.787,2.5-5.75,3.3-10.348,2.591-14.909a51.968,51.968,0,0,0-6.461-18.237c-5.969-10.273-14.155-19.2-22.071-27.824-.97-1.057-1.972-2.15-2.957-3.23-4.459-4.891-8.784-9.709-12.67-14.888a75.864,75.864,0,0,1-9.8-16.786,74.321,74.321,0,0,1-5.486-21.717c-1.657-18.374-.462-37.032.694-55.076l.141-2.2c.159-2.486.385-5.008.6-7.447.559-6.218,1.137-12.647.636-19.017-.56-7.12-1.931-12.4-4.445-17.125a47.587,47.587,0,0,0-24.075-20.991l-.133-.05a2.041,2.041,0,0,1-.7-.363c-2.325-2.181-5.363-2.594-8.3-2.993-.3-.04-.6-.081-.894-.123-.2-.029-.42-.048-.648-.068a3.176,3.176,0,0,1-1.835-.5,4.151,4.151,0,0,0-3.166-.96h-.54a5.317,5.317,0,0,1-2.686-.506,2.335,2.335,0,0,0-1.118-.2c-.372,0-.783.033-1.217.067l-.051,0c-.489.039-.93.072-1.367.072a5.751,5.751,0,0,1-.881-.06q1.191-.081,2.383-.159l.056,0,.084-.006c-.015-.052-.03-.1-.044-.157s-.029-.1-.044-.157c-.72-.033-1.446-.081-2.149-.127-1.3-.085-2.636-.173-3.949-.173-.257,0-.509,0-.752.01l-1.727.045c-6.723.168-13.668.341-20.213,2.98a12.6,12.6,0,0,1-2.751.638,11.747,11.747,0,0,0-3.487.922,21.393,21.393,0,0,1-4.253,1.431,22.114,22.114,0,0,0-4.4,1.486c-4.8,2.4-9.167,4.387-13.351,6.085a36.547,36.547,0,0,0-5.6,3.061c-.869.545-1.767,1.106-2.674,1.622a36.413,36.413,0,0,0-4.152,2.906c-.62.478-1.26.972-1.9,1.434a81.62,81.62,0,0,0-10.49,8.875c-3.561,3.62-6.886,7.34-9.385,10.176-1.181,1.341-2.358,2.724-3.5,4.061l-.012.015c-1.757,2.064-3.574,4.2-5.446,6.229a121.585,121.585,0,0,0-10.126,12.349,19.172,19.172,0,0,1-2.787,2.966,21.062,21.062,0,0,0-2.572,2.671l-.364.48a25.793,25.793,0,0,1-4.178,4.669,85.569,85.569,0,0,1-10.264,7.241c-10.97,6.486-23.7,11.679-38.93,15.877-.647.179-1.3.366-1.93.547a38.031,38.031,0,0,1-10.472,1.962q-.248,0-.5-.006c-.284-.007-.532-.01-.758-.01a9.641,9.641,0,0,0-3.406.487,26.748,26.748,0,0,1-7.751,1.675c-3.082.233-6.181.686-9.179,1.123-2.445.357-4.97.726-7.473.974-8.692.862-18,1.714-27.153,2.108-2.531.109-5.085.375-7.556.633-2.919.3-5.937.62-8.939.677a34.226,34.226,0,0,0-7.583,1.324c-1,.251-2.018.509-3.022.726-18.544,3.989-32.972,11.043-44.109,21.566A7.261,7.261,0,0,1,59,143.067a5.792,5.792,0,0,0-2.666,1.7c-4.844,6.231-11.3,14.409-18.277,22.409-4.369,5.011-7.47,10.851-10.468,16.5-1.583,2.982-3.22,6.066-5.025,8.992l-.173.282c-.883,1.438-.935,1.524-2.989,2.382-.16.067-.25.3-.337.522-.033.086-.064.166-.1.238-.845,1.737-1.755,3.477-2.635,5.16a97.54,97.54,0,0,0-5.08,10.766c-.213.566-.436,1.137-.652,1.69-1.112,2.842-2.261,5.78-2.312,8.913-.2,12.564,5.16,23.234,15.932,31.714,6.081,4.785,13.023,8.058,19.619,10.883a116.519,116.519,0,0,0,45.31,9.447c.832.006,1.705.009,2.594.009,5.379,0,10.838-.107,16.117-.211l.206,0,.085,0C113.459,274.352,118.948,274.244,124.355,274.244Zm-26.5,10.291h0v.281h9.317c.019-.093.038-.188.055-.281Zm18.9-2.157a3.261,3.261,0,0,0-1.637.393,20.342,20.342,0,0,0,3.307.338c2,0,3.114-.572,3.607-1.856a2.747,2.747,0,0,1-2.474,1.412,9.06,9.06,0,0,1-1.352-.139l-.028,0A9.445,9.445,0,0,0,116.759,282.378Zm7.123-5.124c2.419,0,4.651.021,6.822.065A172.679,172.679,0,0,1,160.11,280.1a114.55,114.55,0,0,0-25.9-3.544c-3.674-.108-7.451-.16-11.548-.16-7.324,0-14.5.175-19.939.327-2.745.076-5.537.1-8.237.126-2.883.026-5.854.053-8.775.141h-.079a6.347,6.347,0,0,1-1.317-.191,6.484,6.484,0,0,0-1.345-.191,2.571,2.571,0,0,0-1.587.517,65.05,65.05,0,0,0,10.036.651c.59,0,1.21,0,1.895-.013,4.1-.051,8.255-.146,12.274-.238C111.582,277.395,117.778,277.254,123.881,277.254ZM72.218,121.792c-7.855,3.988-16.753,9.186-23.187,17.5A129.388,129.388,0,0,1,72.218,121.792ZM226.774,86.216c-9.008,3.937-18.926,7.654-31.213,11.7A117.522,117.522,0,0,0,226.774,86.216Zm12.512,4.878q-4.222,2.161-8.445,4.32l-2.863,1.464A42.241,42.241,0,0,0,239.286,91.095ZM365.1,2.61l-.552,0a108.444,108.444,0,0,1,28.306,6.546A61.584,61.584,0,0,0,365.1,2.61Zm-2.872-.7-.075,0c-2.829.138-5.663.292-8.662.456h-.027l-2.857.155c.2.234.337.407.437.533.143.181.2.256.251.256a70.921,70.921,0,0,1,7.489-.486c1.2,0,2.306.049,3.392.151.033,0,.067,0,.1,0a.545.545,0,0,0,.612-.44.508.508,0,0,0-.1-.442A.741.741,0,0,0,362.228,1.911Z" transform="translate(0 0)"/></g><g transform="translate(1761.164 347)"><path class="a" d="M0,0H208.811V452.484H0Z" transform="translate(0 0.176)"/><g class="d" transform="translate(0 0.176)"><path d="M109,452.483a90.471,90.471,0,0,1-25.965-4.019c-20.873-6.188-37.223-12.627-51.454-20.265A62.979,62.979,0,0,1,9.11,408.743a14.466,14.466,0,0,0-1.648-1.853,12.549,12.549,0,0,1-1.989-2.358c-3.271-5.464-4.3-11.68-3.144-19a122.23,122.23,0,0,1,4.893-18.391c2.6-8.061,6.27-15.806,9.817-23.3a213.759,213.759,0,0,0,9.08-21.1c3.476-10,6-18.406,7.928-26.438,2.388-9.927,1.845-20.36-1.706-32.832-2.746-9.645-6.379-19.149-9.893-28.34-.941-2.461-1.912-5-2.854-7.513C13.14,210.4,6.069,189.912,2.563,168.5A183.227,183.227,0,0,1,.025,142.085a129.511,129.511,0,0,1,2.105-26.479A156.107,156.107,0,0,1,13.182,80.4a175,175,0,0,1,18.7-31.8c9.015-12.257,18.4-21.805,28.7-29.191C75,9.065,89.434,2.993,104.709.846A82.985,82.985,0,0,1,116.363,0c.562,0,1.131.006,1.692.019,1.213.026,2.448.035,3.641.043h.009a88.061,88.061,0,0,1,10.068.454c9.7,1.181,17.7,4.093,24.454,8.905q.6.43,1.216.857a34.229,34.229,0,0,1,6.6,5.5c.731.86,1.5,1.717,2.242,2.546a40.28,40.28,0,0,1,6.555,8.826,49.49,49.49,0,0,0,2.948,4.961,38.4,38.4,0,0,1,3.678,6.587c4.6,11.582,6.768,24.038,6.614,38.081a178.511,178.511,0,0,1-2.627,27.162c-1.245,8.907-3.624,18.852-6.143,29.38-1.036,4.331-2.108,8.809-3.108,13.263A95.54,95.54,0,0,0,179.4,206.2c3.871,9.274,8.534,18.338,13.044,27.1l.08.156.911,1.77A134.689,134.689,0,0,1,206.8,273.714,133.365,133.365,0,0,1,208.492,306a303.23,303.23,0,0,1-10.268,59.589c-2.8,10.179-6.911,23.45-13.9,35.817a154.694,154.694,0,0,1-13.137,19.91A96.673,96.673,0,0,1,154.347,438.2c-7.866,6.078-17.494,10.135-30.3,12.766A74.9,74.9,0,0,1,109,452.483ZM114.8,6.766v0c-2.741,0-5.644.132-8.629.393-18.264,1.6-34.51,9.024-49.666,22.711C46.306,39.083,37.278,50.887,28.1,67.019a148.8,148.8,0,0,0-17.982,52.474c-2.586,17.855-1.27,37.194,4.023,59.122a359.676,359.676,0,0,0,15.028,47.359c4.648,11.791,8.743,22.46,11.787,33.631,2.908,10.674,3.732,19.6,2.595,28.105a111.891,111.891,0,0,1-4.1,16.96c-.517,1.734-1.05,3.525-1.547,5.295-3.717,13.229-9.728,25.752-15.54,37.862-1.051,2.189-2.137,4.452-3.194,6.687-1.536,3.25-2.81,6.692-4.041,10.021-.454,1.228-.924,2.5-1.4,3.743a33.522,33.522,0,0,0-1.311,4.775c-.225,1.015-.458,2.063-.747,3.071a22.841,22.841,0,0,0-.6,3.249,21.137,21.137,0,0,1-.646,3.367c-.777,2.522-.456,5.071-.146,7.535.126,1,.257,2.041.31,3.06.087,1.666.206,3.948,2.111,5.369a4.741,4.741,0,0,1,1.17,3.02,1.8,1.8,0,0,1-.2,1.239,3.232,3.232,0,0,0-.485,4.31l.361.454A29.655,29.655,0,0,0,17,411.6a77.769,77.769,0,0,0,15.065,10.661C46.92,430.1,62.62,435.479,76.019,439.7a158.954,158.954,0,0,0,23.43,5.886,75.738,75.738,0,0,0,11.478.88,81.847,81.847,0,0,0,25.683-4.287c8.085-2.67,14.124-6.01,19-10.51a108.955,108.955,0,0,0,27.771-39.76c9.888-24.73,15.691-51.61,17.74-82.175a126.24,126.24,0,0,0-14.242-67.325c-5.274-10.194-9.975-19.429-14.111-29.211a108.23,108.23,0,0,1-8.095-30.665,101.134,101.134,0,0,1,1.705-31.666c.583-2.754,1.189-5.543,1.774-8.241l0-.012c2.321-10.7,4.513-20.8,5.72-30.093,2.066-12.243,3.425-22.52,3.342-32.882-.147-18.364-4.012-33.356-11.816-45.832-7.432-11.879-16.658-19.581-28.205-23.544a67.941,67.941,0,0,0-22.4-3.5ZM5.873,173.7h0a17.608,17.608,0,0,0,1.21,6.151c0,.035-.006.071-.009.106l.034.013.013.005c.025.195.046.394.067.587a10.679,10.679,0,0,0,.2,1.34c2.612,11.07,6.156,22.1,9.6,32.369.424,1.265.841,2.557,1.244,3.807,1.2,3.706,2.433,7.539,4,11.156,3.448,7.949,6.423,16.107,8.629,22.327.5,1.414.994,2.859,1.469,4.257l0,.011.017.051q.328.964.658,1.928a117.061,117.061,0,0,0-5.4-17.046A469.42,469.42,0,0,1,7.763,181.278c-.027-.1-.045-.215-.063-.323-.064-.388-.13-.79-.583-.976l-.006-.049-.031-.076a11.735,11.735,0,0,0-.706-4.294C6.195,174.954,6.009,174.328,5.873,173.7Zm162-139.951h0a90.877,90.877,0,0,1,7.4,15.888C174.449,44.4,170.231,35.341,167.868,33.751Z" transform="translate(0 0)"/></g></g><g transform="translate(1729.026 671.981) rotate(22)"><path class="a" d="M0,0H79.759V139.206H0Z" transform="translate(0.405 0.051)"/><g class="e" transform="translate(0.405 0.051)"><path class="c" d="M14.115,139.206a1.259,1.259,0,0,1-.8-.4.975.975,0,0,0-.646-.361c-.262,0-.49.211-.739.683a2.5,2.5,0,0,1-.275-.966,2.582,2.582,0,0,0-.554-1.445l.027.15c.12.659.232,1.282-.024,1.627a.774.774,0,0,1-.571.28,2.909,2.909,0,0,1-.312.018,1.067,1.067,0,0,1-.885-.326,1,1,0,0,1,.014-.928s0-.013-.009-.024a.44.44,0,0,0-.182-.144,1.521,1.521,0,0,1-.66.17,1.993,1.993,0,0,1-1.3-.73l-.049-.046a2.215,2.215,0,0,0-1.487-.776l-.087,0-.07,0c-.9,0-1.522-.98-2.068-1.845-.174-.275-.337-.534-.5-.756A14.068,14.068,0,0,1,.2,127.046a19.209,19.209,0,0,1,.287-7.033c.155-.747.25-1.535.342-2.3a19.592,19.592,0,0,1,.622-3.424,19.546,19.546,0,0,1,3.223-5.669l.007-.009.38-.525a30.509,30.509,0,0,1,5.653-5.653,20.729,20.729,0,0,1,5.693-3.116,2.109,2.109,0,0,1,.725-.175.523.523,0,0,1,.417.167c.242.273.278.884.127,2.107a2.14,2.14,0,0,0,1.3-1.157.856.856,0,0,0-.1-.753c-.205-.317-.274-.544-.209-.693.074-.172.308-.215.533-.256a2.173,2.173,0,0,0,.227-.049,3.222,3.222,0,0,1,.794-.1,2.874,2.874,0,0,0,1.05-.183.558.558,0,0,1,.219-.049c.387,0,.6.491.717.9.23.837.27.853,1.3,1.253l.087.034A1.142,1.142,0,0,1,23.261,99a1.6,1.6,0,0,0,.048-.849.2.2,0,0,1,.033-.188.884.884,0,0,1,.674-.219,1.44,1.44,0,0,1,.62.131,7.6,7.6,0,0,0,3.308.854,5.969,5.969,0,0,0,4.03-1.66,1.651,1.651,0,0,1,.415-.247c.048-.023.1-.045.143-.069.025-.013.051-.023.078-.034.116-.047.237-.1.153-.321a.516.516,0,0,0-.39-.238.931.931,0,0,0-.506.255c-.05.039-.1.077-.153.113a1.31,1.31,0,0,1-.747.254.858.858,0,0,1-.659-.28.939.939,0,0,1-.2-.766,12.326,12.326,0,0,0,.021-2.241,6.711,6.711,0,0,1,.777-4.339c.25-.38-.037-1.126-.314-1.847-.113-.295-.231-.6-.306-.869-.016-.056-.035-.113-.054-.168-.061-.182-.119-.352-.041-.461.061-.085.2-.127.429-.127.2,0,.341-.065.382-.173S31,85.3,30.88,85.2c-1.032-.934-.737-1.893-.4-3a2,2,0,0,0-.134-1.153,2.78,2.78,0,0,1-.162-1.5A2.709,2.709,0,0,1,31.3,77.788c1.3-.942,1.307-.965.311-2.437A1.729,1.729,0,0,0,30.586,77.4c-.073-.283-.176-.571-.276-.85-.417-1.167-.811-2.268.746-3.205.115-.069.171-.133.169-.2,0-.1-.143-.175-.292-.256a1.588,1.588,0,0,1-.213-.13,2.355,2.355,0,0,1-.968-2.249,20.068,20.068,0,0,0-.178-5.152c-.056-.462-.109-.9-.153-1.337-.226-2.238-.715-4.689-1.155-6.811-.248-1.194-.491-2.41-.727-3.586-1.262-6.305-2.567-12.825-5.1-18.864C18.586,25.554,14.16,15.934,6.289,8.444A21.042,21.042,0,0,1,1.422,2.22c-.027-.057-.054-.114-.082-.172C1.061,1.466.774.867,1.307.263A.643.643,0,0,1,1.784,0a1.14,1.14,0,0,1,.584.253L2.379.26A1.2,1.2,0,0,0,3,.52h.04a1.792,1.792,0,0,1,1.236.912A27.143,27.143,0,0,0,9.737,7.39c6.445,5.624,10.88,12.928,14.53,19.334a89.979,89.979,0,0,1,10.008,26.2c.212,1.017.5,2.038.773,3.027a23.433,23.433,0,0,1,1.139,6.2c0,.355-.005.714-.01,1.062a18.546,18.546,0,0,0,.2,3.795,33.441,33.441,0,0,1,.637,5.006c0,.109.015.219.024.326a1.862,1.862,0,0,1-.181,1.248,2.153,2.153,0,0,1-.152.2c-.129.156-.263.318-.212.45s.233.2.574.253a.184.184,0,0,1,.149.092c.068.139-.077.4-.193.608l-.054.1-.082.149c-.307.55-.624,1.119.1,1.669a.793.793,0,0,1,.161.257c-.422.262-.633.5-.645.729-.015.282.274.509.554.728a1.555,1.555,0,0,1,.474.481c.257.575.31.97.163,1.206-.176.283-.616.3-1.041.317a2.019,2.019,0,0,0-.783.123,7.2,7.2,0,0,0,.8,1.1c.7.849,1.36,1.65.937,2.973a.528.528,0,0,1-.212.055c-.193,0-.253-.19-.317-.391a.843.843,0,0,0-.223-.419c-.224.521-.334.9-.18,1.191a1.071,1.071,0,0,0,.808.443.534.534,0,0,1,.408.268.7.7,0,0,1-.065.614c-.67,1.309-.67,1.309.031,2.315a.874.874,0,0,1-.682.223h-.157a1.46,1.46,0,0,0-.352.033c-.137.033-.361.166-.351.209a.994.994,0,0,0,.26.549,4.845,4.845,0,0,1,1.247,4.741.214.214,0,0,1-.051.061c-.024.023-.047.044-.044.064a4.974,4.974,0,0,1-.254,2.03,5.4,5.4,0,0,0-.268,1.606c.057,1.411,1.155,2.068,2.216,2.7a10.828,10.828,0,0,1,1.072.7,3.029,3.029,0,0,0,.955.428,4.864,4.864,0,0,1,.672.251,16.887,16.887,0,0,0,7.5,1.854,16.04,16.04,0,0,0,11.589-5.295,55.311,55.311,0,0,0,5.27-6.7c.755-1.07,1.535-2.175,2.34-3.235.4-.526.821-1.048,1.23-1.553a22.5,22.5,0,0,0,3.125-4.592,1.71,1.71,0,0,1,1.006-.769l.028-.012a1.445,1.445,0,0,1,.521-.146.447.447,0,0,1,.354.162c.233.268.039.593-.1.831l-.035.059c-.351.607-.73,1.212-1.1,1.8-.416.664-.845,1.349-1.236,2.042-.752,1.333-1.63,2.613-2.479,3.851-.817,1.191-1.661,2.423-2.4,3.707a24.368,24.368,0,0,1-6.312,7.671c-.058.043-.079.139-.112.284-.019.087-.043.2-.082.322a6.814,6.814,0,0,0,2.667-1.882,49.177,49.177,0,0,0,4.381-5.683c.251-.4.5-.811.732-1.212A11.845,11.845,0,0,1,72.33,90.11a1.618,1.618,0,0,0,.568-1.09,3.294,3.294,0,0,1,.144-.51,8.62,8.62,0,0,1,1.282-1.991,6.546,6.546,0,0,0,1.509-2.755.666.666,0,0,1,.669-.582,1.256,1.256,0,0,1,.745.3c2.445,1.891,3.016,2.889,2.089,5.859a45.458,45.458,0,0,1-7.568,13.84,9.922,9.922,0,0,0-1.152,1.849,17.521,17.521,0,0,0,4.321-5.3c.475-.764.965-1.553,1.5-2.328-.38,2.5-2.439,5.679-5.5,8.509-2.961,2.733-6.1,4.431-8.183,4.431a2.885,2.885,0,0,1-1.107-.2,3.021,3.021,0,0,1-2.8,1.911,2,2,0,0,1-.886-.192c-.073-.036-.145-.075-.214-.113a1.339,1.339,0,0,0-.609-.222.59.59,0,0,0-.335.108,5.353,5.353,0,0,1-3.065.9,11.693,11.693,0,0,1-3.507-.678,14.527,14.527,0,0,0-2.586-.486,8.524,8.524,0,0,1-4.248-1.326,16.119,16.119,0,0,0-3.114-1.679,18.822,18.822,0,0,1-2.687-1.381,1.551,1.551,0,0,0-.835-.317.921.921,0,0,0-.718.381.948.948,0,0,0-.266.758,1.1,1.1,0,0,0,.562.719,1.066,1.066,0,0,1,.44,1.08,3.4,3.4,0,0,0,.008.348.465.465,0,0,1-.1.363.291.291,0,0,1-.213.1.28.28,0,0,1-.254-.184c-.17-.381-.32-.567-.456-.567s-.237.169-.337.332l-.006.01c-.1.165-.2.321-.317.321a.162.162,0,0,1-.083-.025,2.307,2.307,0,0,1,1.17,1.424,2.662,2.662,0,0,1-.579,2.02.523.523,0,0,0-.027.565c.022.06.045.121.068.182.167.445.338.9.179,1.128a.455.455,0,0,1-.4.154,2.835,2.835,0,0,1-.771-.146.433.433,0,0,0-.126-.018.492.492,0,0,0-.464.274c-.026.082-.015.209.18.342.952.651.694,1.463.467,2.179a3.929,3.929,0,0,0-.165.632,12.274,12.274,0,0,1-1.095,3.242c-.143.321-.29.653-.425.98-.147.358-.459.743-.8.743a.452.452,0,0,1-.154-.028.309.309,0,0,1-.208-.206.969.969,0,0,1,.246-.728,2.676,2.676,0,0,1-.009-.793,1.715,1.715,0,0,0-.221-1.269,3.531,3.531,0,0,1-.69-2.853,9.109,9.109,0,0,1-1.074,1.714,6.631,6.631,0,0,0-1.3,2.4,6.211,6.211,0,0,1-1.342,2.521,19.319,19.319,0,0,0-2.013,3.057,21.3,21.3,0,0,1-1.778,2.771.742.742,0,0,0-.224.509.274.274,0,0,0,.143.186.647.647,0,0,0,.325.1.556.556,0,0,0,.472-.31,14.329,14.329,0,0,1,.995-1.36c.147-.186.3-.377.446-.569-.437.873.017,1.52.455,2.146.065.092.129.184.191.277.51.145.834.4.911.727a.975.975,0,0,1-.393.912,6.663,6.663,0,0,0-.925,1.162,3.253,3.253,0,0,1-2.461,1.834,1.405,1.405,0,0,1-.287,1.072,1.867,1.867,0,0,1-1.372.372c-.424.007-.791.014-.906.246a1.522,1.522,0,0,1-1.421,1.03,4.126,4.126,0,0,1-.869-.128,4.109,4.109,0,0,0-.852-.128,1.261,1.261,0,0,0-.556.116,2.111,2.111,0,0,1-.906.222,3.622,3.622,0,0,1-2.324-1.405,3.586,3.586,0,0,0,.24.382c.227.33.44.641.2.973A.541.541,0,0,1,14.115,139.206Zm12.84-22.667h0a1.663,1.663,0,0,0,.153.1c.187.114.381.232.293.542a1.663,1.663,0,0,1-.313,1.792,7.725,7.725,0,0,0-1.081,1.664,37.69,37.69,0,0,1-2.128,4.179c-.509.744-1.068,1.47-1.608,2.173-.567.738-1.154,1.5-1.681,2.282a10.343,10.343,0,0,1-4.966,4.259.36.36,0,0,0-.236.2.355.355,0,0,0,.046.3,2.393,2.393,0,0,0,1.782.685c.382,0,.611-.1.644-.273a2.335,2.335,0,0,1,1.218-1.553,4.642,4.642,0,0,0,.7-.541,40.108,40.108,0,0,0,7.546-10.64,8.031,8.031,0,0,0,.465-1.307,4.361,4.361,0,0,1,1.46-2.552c.227-.167.321-.354.264-.528a.843.843,0,0,0-.832-.4h-.068a4.664,4.664,0,0,0,.407-1.146,3.167,3.167,0,0,1,1.049-1.916,2.386,2.386,0,0,0,.452-2.614.092.092,0,0,0-.087-.047.95.95,0,0,0-.334.131l-.094.048a1.393,1.393,0,0,1-.594.18.6.6,0,0,1-.313-.084c-.063.384-.207.588-.414.588a.809.809,0,0,1-.545-.354.8.8,0,0,1-.207-.661.819.819,0,0,1,.475-.534c.525-.268.727-.554.6-.851a3.95,3.95,0,0,1,.42-3.384c.082-.182.167-.369.246-.556a1.872,1.872,0,0,0-.352-1.552,1.272,1.272,0,0,0-.934-.679.557.557,0,0,0-.093.008,2.572,2.572,0,0,1-.424.038,1.779,1.779,0,0,1-1.583-1.083,2.469,2.469,0,0,0,.12.695c.144.528.279,1.027-.523,1.344a1.828,1.828,0,0,1-.663.14,1.354,1.354,0,0,1-1.209-.849,1.172,1.172,0,0,0-.678.759,2.981,2.981,0,0,1-.219.425c0-.074-.008-.146-.011-.217-.024-.539-.044-1-.609-1.243a.727.727,0,0,0-.129.421c-.022.229-.043.446-.346.543a3.629,3.629,0,0,0-2.718,2.075.259.259,0,0,1-.263.181.645.645,0,0,1-.426-.194c-.326-.34-.586-.506-.8-.506-.342,0-.5.444-.646.873-.032.093-.066.19-.1.28a4,4,0,0,1-.85,1.347,36.921,36.921,0,0,0-7.323,11.262,1.23,1.23,0,0,0,.09,1.227.989.989,0,0,1,.089,1l-.008.029A12.583,12.583,0,0,0,9.153,128a2.2,2.2,0,0,1-.5,2.209.512.512,0,0,0,.357.109c.042,0,.085,0,.128,0h.008c.044,0,.088,0,.132,0a.535.535,0,0,1,.567.386c.819,2,1.689,2.9,2.823,2.9a5.317,5.317,0,0,0,2.882-1.261,28.024,28.024,0,0,0,6.927-7.75c.151-.233.307-.467.458-.694a15.076,15.076,0,0,0,2.006-3.76c.054-.168.1-.345.159-.533a4.734,4.734,0,0,1,1.857-3.06Zm-.46,15.074c-.584.13-.851.6-1.109,1.058a1.892,1.892,0,0,1-1.013,1.036s-.005,0-.007.012a.642.642,0,0,0,.063.389.674.674,0,0,0,.366.167.046.046,0,0,0,.034-.01,4.446,4.446,0,0,1,.7-.578c.658-.472,1.339-.96.965-2.075ZM3.747,120.96c-.227,0-.415.254-.6.5a3.152,3.152,0,0,1-.2.252c-.119.128-.043.544.068.736a.355.355,0,0,0,.3.22.775.775,0,0,0,.33-.117.805.805,0,0,1,.346-.122h.042a1.019,1.019,0,0,0,.622-.325l.006,0a1.033,1.033,0,0,1,.641-.328.782.782,0,0,1,.416.137.289.289,0,0,1,.148-.036,1.081,1.081,0,0,1,.262.047,1.055,1.055,0,0,0,.253.047c.152,0,.234-.092.263-.3a.478.478,0,0,0-.1-.4.8.8,0,0,0-.577-.2,1.123,1.123,0,0,0-.249.027,3.936,3.936,0,0,1-.895.129A2.043,2.043,0,0,1,3.894,121,.328.328,0,0,0,3.747,120.96Zm6.5-15.441A19.535,19.535,0,0,0,3.915,114.1l-.05.008,0,.041,0,.04c-.6.712-1.1,1.432-.691,2.414.017.041.031.085.045.128.05.157.1.32.312.328h.025a.37.37,0,0,0,.275-.1.614.614,0,0,0,.126-.452c-.011-.564-.038-1.138-.064-1.693V114.8q-.014-.305-.028-.611l.024-.028.021-.057A1.92,1.92,0,0,0,5.2,113.012a29.454,29.454,0,0,1,2.732-3.8c.429-.535.873-1.087,1.292-1.645.081-.108.173-.209.271-.317A2.333,2.333,0,0,0,10.247,105.519Zm22,9.43c-.06.04-.128.075-.2.113-.179.1-.365.193-.412.348a.345.345,0,0,0,.044.269,3.861,3.861,0,0,0,.907,1c.079.069.157.137.232.205a.013.013,0,0,0,.009,0,1.492,1.492,0,0,0,.466-.341.164.164,0,0,0,.02-.139,3.12,3.12,0,0,0-1.067-1.453h0Zm-18.837-5.433c-.273.41-.56.82-.837,1.216a17,17,0,0,0-2.592,4.689,12.516,12.516,0,0,1,1.52-2.346A8.653,8.653,0,0,0,13.411,109.516Zm19.113,2.971a.443.443,0,0,0-.126.02c-.448.135-.448.484-.448.854a1.155,1.155,0,0,1-.178.77c-.144.174-.2.315-.16.431.062.194.364.275.63.347l.03.008-.018.026a.233.233,0,0,0,.034-.021l-.009,0-.007,0c.081-.116.174-.228.264-.337a1.533,1.533,0,0,0,.5-1.35C32.941,112.73,32.772,112.487,32.525,112.487Zm-1.8-6.327a.575.575,0,0,0-.354.166,1.679,1.679,0,0,0-.722,1.477,1.7,1.7,0,0,0,1.127,1.224c.419.184.84.382,1.248.573l.582.272a9.7,9.7,0,0,1-.615-1.525,7.317,7.317,0,0,0-.753-1.728l-.014-.021C31.077,106.373,30.936,106.161,30.729,106.161Zm.139-2.035h0a2.774,2.774,0,0,0-.842.158,1.99,1.99,0,0,1,1.106.817,1.313,1.313,0,0,0,1.032.656,1.442,1.442,0,0,0,.278-.029,2.7,2.7,0,0,1-.335-.584c-.237-.5-.481-1.018-1.239-1.018Zm40.32-2.236c-.117.082-.24.164-.359.242a3.073,3.073,0,0,0-1.72,2.4A5.563,5.563,0,0,0,71.188,101.89Zm-56.353-.432h0c-.11,0-.125.116-.14.227a.418.418,0,0,1-.05.183.327.327,0,0,0-.076.342.441.441,0,0,0,.368.189l.088,0c.089,0,.182,0,.276,0,.537,0,1.114-.062,1.323-.521s-.221-.69-.606-.886c-.091-.046-.176-.09-.249-.135a.128.128,0,0,0-.108.048c-.062.088,0,.283.063.472s.114.351.062.423a.1.1,0,0,1-.085.035,1.558,1.558,0,0,1-.617-.283.532.532,0,0,0-.249-.1Zm19.773-7.373c-.025,0-.051,0-.078,0-.863.073-.881,1.014-.894,1.7,0,.158-.006.306-.019.426-.027.25-.017.4.03.448a.066.066,0,0,0,.051.023c.077,0,.193-.106.326-.23l.056-.051a.876.876,0,0,1,.466-.282c.117,0,.2.093.261.283.006.019.034.029.079.029a.809.809,0,0,0,.713-.622c-.588-.07-.577-.551-.567-.975a.934.934,0,0,0-.121-.651A.4.4,0,0,0,34.608,94.085ZM73.4,92.65a5.923,5.923,0,0,0-1.893,3.281C73.254,93.936,73.378,93.721,73.4,92.65Zm3.054-6.035c-.246,0-.447.265-.477.629a1.476,1.476,0,0,1-.678.967l-.05.042c-.275.23-.14.486-.009.733a1.57,1.57,0,0,1,.127.282c.009.032.179.043.291.043.081,0,.1-.005.1-.008a1.441,1.441,0,0,1,.835-.935,1.555,1.555,0,0,0,.786-.779c.014-.044-.012-.1-.045-.171-.016-.035-.035-.075-.05-.118l-.479.207-.249.107c-.135-.129-.194-.234-.181-.321.016-.109.142-.174.254-.232s.193-.1.2-.171c0-.053-.041-.115-.138-.189A.394.394,0,0,0,76.457,86.616Zm-41.712.562a.471.471,0,0,0-.378.176.707.707,0,0,0-.141.452c0,.816.584.894,1.2.977.106.014.216.029.322.048a1.159,1.159,0,0,1-.234-.747c-.038-.443-.074-.861-.729-.9ZM31.761,84a.18.18,0,0,0-.151.059c-.084.1-.029.344.034.621a1.674,1.674,0,0,1-.021,1.232.967.967,0,0,1-.66.392.024.024,0,0,0-.02.02c-.018.08.167.347.319.46a1.237,1.237,0,0,0,.717.3c.431,0,.707-.4.975-.779.063-.09.128-.183.194-.269a4.108,4.108,0,0,0,.262-.406c.264-.447.514-.869,1.2-.869h.021c.179,0,.316.167.448.326.118.142.23.276.359.276.1,0,.205-.084.317-.257.191-.3-.042-.475-.29-.663a.923.923,0,0,1-.4-.46c-.089-.405-.239-.594-.472-.594a1.228,1.228,0,0,0-.472.151l-.013.006a1.163,1.163,0,0,1-.444.145.292.292,0,0,1-.121-.024.676.676,0,0,0-.481-.306.859.859,0,0,0-.51.291l-.038.034a1,1,0,0,1-.646.325.644.644,0,0,1-.065,0l-.047,0Z" transform="translate(-0.001 0)"/></g></g><g transform="translate(1693 309.447)"><path class="c" d="M8.239,109.586a2.006,2.006,0,0,1-.96-.45,3.421,3.421,0,0,0-.355-.192c-.057-.028-.113-.056-.169-.085a.447.447,0,0,0-.21-.054.964.964,0,0,0-.52.241.968.968,0,0,1-.525.24.6.6,0,0,1-.41-.2.82.82,0,0,0-.573-.268,1.789,1.789,0,0,0-.865.363l-.034.021a.793.793,0,0,1-.417.144c-.328,0-.674-.314-1.364-.968l.087-.686,0-.024.054-.421c-.074.011-.152.016-.228.022a1.192,1.192,0,0,0-.493.1,1.825,1.825,0,0,0-.437.4c-.058.066-.119.133-.182.2a.992.992,0,0,0-.091-.072c-.069-.05-.139-.1-.152-.166-.044-.223-.1-.454-.164-.677a4.051,4.051,0,0,1-.207-1.691,2.547,2.547,0,0,1,.651-1.085,4.388,4.388,0,0,0,.545-.753l.213-.409c1.1-2.115,2.242-4.3,3.567-6.34.268-.414.507-.856.738-1.283A10.423,10.423,0,0,1,7.25,93.216a1.353,1.353,0,0,0,.251-.628,1.344,1.344,0,0,1,.253-.63,1.137,1.137,0,0,1,.336-.215c.262-.128.532-.261.428-.738-.031-.141.1-.334.212-.489l.028-.04c.5-.715.949-1.474,1.388-2.208s.884-1.478,1.37-2.181c.66-.957,1.251-1.967,1.822-2.944l.273-.467c.31-.528.667-1.038,1.012-1.532a13.065,13.065,0,0,0,1.673-2.9.377.377,0,0,1,.134-.139l.014-.01q.525-.4,1.05-.792l.352-.265c-.368-.612-.049-1.027.288-1.466.045-.058.09-.117.133-.176a5,5,0,0,0,.407-.706,4.093,4.093,0,0,1,.5-.826,18.619,18.619,0,0,0,1.836-2.711c.327-.55.664-1.117,1.03-1.653.251-.366.485-.74.754-1.173.131-.21.269-.432.422-.673a2.747,2.747,0,0,0-.832-.141,2.255,2.255,0,0,0-1.637.78,2.879,2.879,0,0,0-.4.561c-.245.412-.5.838-1.111.893.038.565-.343.774-.71.976a1.245,1.245,0,0,0-.634.562,1.216,1.216,0,0,1-.92.684,1.4,1.4,0,0,0-.772.439c.27.546.27.546-1.01,1.81a2.633,2.633,0,0,1-1.919,1.057c-.036.2-.072.407-.111.619l0,.025c-.033.183-.067.373-.1.573l-.262-.235-.523-.467.187.659.209.738a2.07,2.07,0,0,0-.621.157,2.243,2.243,0,0,1-.761.177,1.212,1.212,0,0,1-.638-.186l-.01,0c-.066,0-.273.237-.514.512-.127.145-.258.3-.38.423L9.09,77.049l-.6-1.112a14.9,14.9,0,0,1,2.539-3.555c.524-.533,1.017-1.114,1.494-1.677.495-.584,1.005-1.187,1.552-1.736.81-.816,1.717-1.562,2.594-2.283l.535-.441a9.536,9.536,0,0,0,.99-1.007,5.316,5.316,0,0,1,1.977-1.6A6.935,6.935,0,0,1,22.949,61a8.854,8.854,0,0,0,2.36-1.938,6.456,6.456,0,0,1,3.2-1.975,4.01,4.01,0,0,1,1.11-.152c.17-.007.346-.015.515-.032l2.254,1.375.135.1c.062.046.121.091.18.136l.042.033c1.488,1.172,1.516,1.194.905,2.853a20.172,20.172,0,0,1-.968,2.11c-.156.309-.317.626-.468.944L31.4,64.5h-.011l-.76.04c.066.086.13.156.185.217a.69.69,0,0,1,.194.286c.2.955.308,1.944-.717,2.609A2.342,2.342,0,0,1,29.6,69.4a3.485,3.485,0,0,0-.654,1.109,13.509,13.509,0,0,1-.854,2.045c-.134.277-.272.562-.4.844-.079.177-.168.347-.261.528l-.005.01-.1.195a.889.889,0,0,0,.567.238,1.551,1.551,0,0,0,.976-.595c1-1.009,2.021-2.029,3.009-3.016q1.136-1.134,2.264-2.266a37.569,37.569,0,0,1,4.691-4.018,1.877,1.877,0,0,0,.445-.549,2.308,2.308,0,0,1,.376-.5c1-.918,2.093-1.878,3.435-3.022a12.949,12.949,0,0,0,1.1-1.093,7.3,7.3,0,0,1,2.178-1.808,2.423,2.423,0,0,0,.746-.672,2.973,2.973,0,0,1,.644-.623,3.5,3.5,0,0,0,.8-.746c.079-.091.16-.185.247-.278a11.68,11.68,0,0,1,2.709-2.17,1.387,1.387,0,0,0,.414-.47c.174-.267.354-.542.682-.542a.927.927,0,0,1,.407.111c.127-.165.252-.336.373-.5a10.227,10.227,0,0,1,.861-1.077,35.369,35.369,0,0,1,4.9-4.094A26.387,26.387,0,0,0,61.244,44.7c.3-.267.6-.54.91-.8.618-.53,1.242-1.071,1.845-1.594,1.347-1.168,2.739-2.376,4.144-3.522,2.726-2.224,5.545-4.433,8.185-6.489q.7-.542,1.392-1.089l.013-.01c1.853-1.453,3.769-2.956,5.739-4.31,1.717-1.181,3.4-2.459,5.035-3.7,1.8-1.368,3.671-2.783,5.587-4.071,2.564-1.724,5.57-3.772,8.424-5.9,1.534-1.141,3.146-2.218,4.7-3.259,1.358-.907,2.763-1.846,4.109-2.822,1.09-.79,2.278-1.484,3.427-2.154.83-.484,1.688-.985,2.5-1.519.779-.509,1.592-.988,2.378-1.452.9-.534,1.84-1.085,2.726-1.683a2.744,2.744,0,0,1,.456-.23c.076-.033.151-.065.226-.1.537.946,0,1.419-.525,1.875l-.153.135a14.192,14.192,0,0,1-1.172.9c-.255.184-.543.392-.876.642a6.137,6.137,0,0,0,3.006-1.408c.188-.142.365-.275.549-.4a1.673,1.673,0,0,1,.919-.389,1.328,1.328,0,0,1,.672.215c-.143.287-.284.573-.438.887.576.141,1.24.3,2.089.508-.07.163-.148.309-.217.438-.131.246-.234.44-.186.575.059.161.262.268.478.381.1.05.193.1.28.159a1.556,1.556,0,0,1-.381.466,1,1,0,0,0-.437,1.041c.016.062-.065.178-.114.241a.692.692,0,0,1-.177.177.882.882,0,0,0-.389-.111c-.293,0-.435.246-.585.506-.138.239-.28.485-.55.548l-.113.025c-.423.09-1.132.24-1.157,1.036,0,.047-.16.07-.343.1-.272.04-.611.09-.719.235a1.333,1.333,0,0,0-.144.287c-.086.212-.167.412-.452.412a.864.864,0,0,1-.184-.022.788.788,0,0,0-.16-.014c-.125,0-.234.018-.238.039-.184.981-.9,1.177-1.6,1.366a3.1,3.1,0,0,0-1.044.423,2.786,2.786,0,0,1-.406.233c-.376.188-.764.383-.785.933a.817.817,0,0,0-.1-.006c-.4,0-.541.342-.667.644l-.01.025c-.131.319-.255.62-.6.62a.748.748,0,0,1-.188-.027.7.7,0,0,0-.18-.026c-.314,0-.476.265-.633.522s-.317.522-.62.523a.809.809,0,0,1-.342-.089c-.052,0-.2.222-.363.479-.13.2-.276.424-.4.577a.768.768,0,0,1-.6.178.805.805,0,0,0-.595.17.694.694,0,0,0-.109.534c-.173.059-.348.13-.517.2a3.947,3.947,0,0,1-1.169.343c-.89.065-1.251.442-1.246,1.3a.659.659,0,0,1-.289.5,3.385,3.385,0,0,1-.538.183,2.094,2.094,0,0,0-.74.311,2.328,2.328,0,0,0-.47.687c-.114.215-.213.4-.286.4a1.375,1.375,0,0,0-.294-.036c-.478,0-.683.354-.882.7-.173.3-.353.608-.713.7l-.763-.38-.379-.189a4.719,4.719,0,0,1-1.7,2.105,5.626,5.626,0,0,0-1.513,1.659,1.13,1.13,0,0,1-1.043.648,1.539,1.539,0,0,1-.181-.011,3.538,3.538,0,0,0-.413-.026,1.622,1.622,0,0,0-1.751,1.684c-.022.236-.26.642-.413.648a2.112,2.112,0,0,0-1.614,1.089,2.522,2.522,0,0,1-1.311,1.076,1.493,1.493,0,0,0-.66.5,1.4,1.4,0,0,1-1.02.6,1.161,1.161,0,0,1-.221-.022c-.043,0-.1.1-.157.217a1.793,1.793,0,0,1-.135.23,3.164,3.164,0,0,1-.234.268,1.423,1.423,0,0,0-.376.543.55.55,0,0,1-.637.424l-.134,0-.124,0a.6.6,0,0,0-.651.362,3.887,3.887,0,0,1-1,1.283,5.154,5.154,0,0,1-.7.512,4.593,4.593,0,0,0-.758.572,3.024,3.024,0,0,1-1.272.689c-.107.037-.216.074-.325.115-.236.088-.406.41-.571.723s-.317.6-.516.622a1.88,1.88,0,0,0-1.365.948,3.225,3.225,0,0,1-.537.606q-.408.328-.819.651c-.417.329-.846.669-1.263,1.011a4.013,4.013,0,0,0-.329.316,1.459,1.459,0,0,1-1.055.6,1.274,1.274,0,0,1-.18-.013c-.054,0-.107.1-.169.224a1.123,1.123,0,0,1-.219.332,3.949,3.949,0,0,0-.55.611,1.872,1.872,0,0,1-1.505.963h-.046c-.091,0-.177.126-.269.26a1.469,1.469,0,0,1-.186.237c-1.256,1.174-2.533,2.361-3.768,3.509l-.644.6a1.365,1.365,0,0,0-.284-.032c-.538,0-.783.4-1.019.788a2.274,2.274,0,0,1-.448.585c-.716.587-1.424,1.208-2.109,1.809-.391.343-.794.7-1.195,1.041a.765.765,0,0,1-.321.127l-.044.011-.01,0a4.547,4.547,0,0,0-3.207,1.718c-.209-.039-.429-.1-.641-.156a4.457,4.457,0,0,0-1.112-.206,1.428,1.428,0,0,0-.365.044c-.535.141-.739,1.313-.789,1.669l2.068-1.3a3.178,3.178,0,0,1-.7.992c-.174.18-.3.309-.294.453.018.461-.226.53-.462.6a.764.764,0,0,0-.313.14c-.8.726-1.611,1.473-2.392,2.2-1.037.96-2.109,1.952-3.184,2.906a1.952,1.952,0,0,0-.37.533c-.195.356-.4.724-.859.724a1.24,1.24,0,0,1-.365-.062,4.02,4.02,0,0,1-.813.8,2.216,2.216,0,0,0-1.1,1.815c0,.035,0,.151-.048.19-.959.789-1.938,1.586-2.885,2.357l-.009.007-.45.366a1.164,1.164,0,0,0-.27-.034,1.383,1.383,0,0,0-1.024.652c-.081.1-.165.193-.251.279q-.367.367-.736.733a49.888,49.888,0,0,0-4.42,4.794c-.056.072-.111.148-.168.224-.373.508-.8,1.083-1.552,1.083a1.7,1.7,0,0,1-.306-.029l-.017,0c-.132,0-.35.244-.433.408a4.292,4.292,0,0,0-.211.552,2.145,2.145,0,0,1-.433.867,1.6,1.6,0,0,1-.693.317,1.363,1.363,0,0,0-.7.342,20.022,20.022,0,0,0-2.011,3A5.066,5.066,0,0,1,31.58,84.25v1.309c-.451.484-.949.944-1.43,1.389a21.52,21.52,0,0,0-1.84,1.845,22.586,22.586,0,0,1-3.324,3.3l-.263.2a3.894,3.894,0,0,0-1.809,2.343c-.021.114-.137.205-.259.3a1.63,1.63,0,0,0-.176.154q-.848.909-1.7,1.817C19.407,98.377,17.986,99.9,16.6,101.4c-.474.516-.932,1.062-1.376,1.589a29.4,29.4,0,0,1-2.36,2.59.937.937,0,0,0-.2.482,2.352,2.352,0,0,1-.062.235H11.264c-.046.09-.1.181-.152.269a1.993,1.993,0,0,0-.277.61,2.45,2.45,0,0,1-1.475,1.949c-.138.067-.258.127-.365.181A1.826,1.826,0,0,1,8.239,109.586ZM26.31,65.851a4.549,4.549,0,0,0-1.162,1.219c-.481.768-.953,1.559-1.41,2.324-.38.637-.771,1.292-1.165,1.931-.23.371-.485.735-.732,1.086-.208.3-.423.6-.622.911-.336.518-.661,1.055-.975,1.574-.128.211-.255.421-.383.63-.143.233-.283.467-.424.7-.3.5-.608,1.015-.936,1.5l-.119.176a30.092,30.092,0,0,0-2.634,4.435,3.689,3.689,0,0,1-.272.478c-.045.07-.089.139-.13.209a12.924,12.924,0,0,1-.812,1.156,6.638,6.638,0,0,0-1.347,2.423.923.923,0,0,1-.255.523,7.361,7.361,0,0,0-2.209,2.935c-.091.177-.182.353-.274.525a10.506,10.506,0,0,1-.75,1.15,4.91,4.91,0,0,0-1.2,2.72c-.45.146-.6.53-.749.9a1.313,1.313,0,0,1-.4.646,2.617,2.617,0,0,0-.893,1.152c-.085.166-.172.337-.278.52.154,0,.3.012.433.023.1.009.194.016.269.016.108,0,.167-.016.19-.053.581-.892,1.155-1.807,1.711-2.692.627-1,1.274-2.031,1.933-3.032.63-.957,1.2-1.971,1.745-2.952.4-.724.823-1.472,1.263-2.192.316-.517.668-1.024,1.009-1.514.261-.376.532-.764.784-1.155a7,7,0,0,0,.4-.754,3.227,3.227,0,0,1,.846-1.249,2.26,2.26,0,0,0,.767-1.271,2.818,2.818,0,0,1,.5-1.032,15.17,15.17,0,0,0,1.662-2.555c.244-.436.5-.887.763-1.314.617-.989,1.253-1.99,1.868-2.957.683-1.076,1.39-2.188,2.075-3.29.143-.23.295-.461.441-.685A8.26,8.26,0,0,0,26.31,65.851Zm13.2.3a1.578,1.578,0,0,0-1.393,1c-.307.615-.689,1.381-1.27,1.552a1.373,1.373,0,0,0-.849.841,1.448,1.448,0,0,1-.6.725,6.744,6.744,0,0,0-1.527,1.189c-.216.2-.438.414-.667.605a7.775,7.775,0,0,0-1.164,1.325,10.787,10.787,0,0,1-.834,1.019c-1.267,1.309-2.579,2.613-3.848,3.873q-.788.782-1.573,1.567-.354.355-.712.706c-.512.506-1.042,1.029-1.544,1.561a3.6,3.6,0,0,0-1.139,2.447c.291-.34.58-.694.859-1.036a26.539,26.539,0,0,1,1.916-2.18c3.412-3.343,7.045-6.844,11.431-11.016.548-.521,1.08-1.078,1.6-1.616a22.141,22.141,0,0,1,3.787-3.389,6.971,6.971,0,0,0,1.352-1.289c.1-.119.21-.238.315-.355a2.653,2.653,0,0,1,.677-.488,1.855,1.855,0,0,0,1.04-1.118c.111-.373.545-.635,1-.913a5.338,5.338,0,0,0,.7-.472l.228-.195c.863-.737,1.755-1.5,2.563-2.271s1.692-1.491,2.547-2.187a24.5,24.5,0,0,0,4.221-4.037l.029-.04c.076-.1.171-.235.272-.253a2.45,2.45,0,0,0,1.43-1.01,4.519,4.519,0,0,1,.652-.662l.177-.135c.636-.487,1.294-.991,1.907-1.527.466-.407.927-.836,1.373-1.252a28.923,28.923,0,0,1,2.707-2.322,16.617,16.617,0,0,0,1.444-1.224c.393-.36.8-.732,1.229-1.062l.209-.16c2.12-1.627,4.312-3.308,6.37-5.1.237-.206.475-.428.7-.643a10.008,10.008,0,0,1,1.825-1.462,20.12,20.12,0,0,0,2.912-2.132c.576-.477,1.171-.97,1.79-1.412,1.1-.784,2.162-1.656,3.19-2.5,1.052-.863,2.14-1.755,3.266-2.553,1.247-.883,2.491-1.811,3.693-2.707.822-.613,1.67-1.245,2.513-1.859,1.286-.936,2.6-1.87,3.878-2.773q.861-.61,1.722-1.222l1.149-.817c1.194-.849,2.422-1.722,3.624-2.589a3.1,3.1,0,0,0,.457-.436c.07-.076.143-.155.219-.232-.069-.045-.124-.086-.167-.117-.06-.044-.1-.07-.114-.07-.267.163-.538.319-.8.469a11.655,11.655,0,0,0-1.891,1.26,3.365,3.365,0,0,1-1.012.534c-.593.232-1.206.472-1.441,1.215l-1.378.984-.1.073c-1.245.888-2.528,1.8-3.782,2.713l-.93.673-.073.053c-1.5,1.087-3.056,2.21-4.556,3.354-.594.453-1.176.943-1.739,1.418a28.575,28.575,0,0,1-2.768,2.147c-1.591,1.035-3.1,2.224-4.553,3.374-.633.5-1.288,1.016-1.941,1.514-.874.666-1.723,1.4-2.543,2.1-.874.753-1.776,1.532-2.712,2.232-1.981,1.487-4.273,3.233-6.4,5.144-.217.2-.432.395-.647.594a17.559,17.559,0,0,1-2.359,1.945,20.462,20.462,0,0,0-2.414,1.921c-.553.488-1.124.992-1.726,1.442-.584.436-1.142.929-1.681,1.406-.482.426-.98.866-1.5,1.264a.282.282,0,0,1-.179.049,2.252,2.252,0,0,1-.506-.1c-.152-.04-.324-.085-.5-.113a1.283,1.283,0,0,1-.033,1.075.8.8,0,0,1-.557.423A3.282,3.282,0,0,0,52.653,54a5.246,5.246,0,0,1-.891.765,1.317,1.317,0,0,0-.4.565,1.394,1.394,0,0,1-.389.565,26.185,26.185,0,0,0-4.3,3.5,4,4,0,0,0-.477.667,3.089,3.089,0,0,1-.607.785,6.58,6.58,0,0,1-1.02.641,3.457,3.457,0,0,0-1.4,1.086,4.316,4.316,0,0,1-.979,1.052,3.475,3.475,0,0,0-1.063,1.251c-.056.133-.238.2-.431.275a1.4,1.4,0,0,0-.407.206,1.943,1.943,0,0,0-.317.415c-.126.2-.244.382-.362.383C39.58,66.149,39.547,66.148,39.515,66.148Z" transform="translate(0 0)"/><path class="c" d="M51.983,35.76A31.241,31.241,0,0,1,56.075,32c1.034-.673,1.878-1.547,2.871-2.247,2.553-1.8,5-3.765,7.434-5.722,2.077-1.671,4.256-3.208,6.321-4.894A59.547,59.547,0,0,1,79.1,14.5c.8-.494,1.507-1.122,2.281-1.632,1.686-1.113,3.355-2.283,4.945-3.549A23.327,23.327,0,0,0,89.6,6.916a1.424,1.424,0,0,1,.867-.447c2.143-.151,3.344-1.908,4.98-2.907C96.713,2.788,97.8,1.724,99.042.9A6.052,6.052,0,0,1,101.22.013c.446-.085.975.26,1.526.431-.312.419-.569.788-.852,1.136a4.983,4.983,0,0,1-.5.476L99.765,3.362a1.039,1.039,0,0,1-1.251.821c-.727-.145-.215,1.12-1.112.893-.625-.159-.792.48-1.094.96a4.04,4.04,0,0,1-1.565,1.232,32.106,32.106,0,0,0-4.547,3.384c-.533.413-1.7-.068-1.647,1.128-.792.067-1.12,1.154-1.629,1.133-1.275-.052-1.294,1.326-2.309,1.646-.881.278-1.5,1.336-2.4,1.9-1.262.785-2.371,1.811-3.6,2.655A45.311,45.311,0,0,0,73.57,22.9c-.857.783-1.8,1.475-2.714,2.19-.538.419-1.1.8-1.6,1.163-.183-.038-.527-.185-.583-.111-2.01,2.63-4.757,4.372-7.429,6.2-1.024.7-1.725,1.74-2.835,2.4a22.988,22.988,0,0,0-3.317,2.818c-.665.594-1.144,1.409-2.291,1.225-.433-.07-.707.441-.86.987a2.209,2.209,0,0,1-1.424,1.5,4.789,4.789,0,0,0-2.244,1.758A9.812,9.812,0,0,1,45.487,45.5c-1,.588-1.474,1.87-2.7,2.248-.18.056-.3.294-.457.438-1.749,1.61-3.446,3.282-5.262,4.811-3.152,2.654-6.142,5.478-9.182,8.252-1.492,1.362-2.959,2.757-4.455,4.116-.5.452-1.291.7-1.572,1.242A3.551,3.551,0,0,1,20.5,67.951a2.172,2.172,0,0,1-2.036.6l.605.648-2.439,1.789.329.37a7.114,7.114,0,0,1-1.3.9,10.3,10.3,0,0,1-1.923.356l1.359.769-2.2,1.13c-.234-.221-.526-.5-.82-.772l-.633.633.909.427a2.883,2.883,0,0,1-.209.569,8.9,8.9,0,0,0-.685,1c-.336.762-.311.765-1.565,1.279a1.078,1.078,0,0,0-.45.446,3.148,3.148,0,0,1-1.363,1.352c.083.2.292.494.225.585-.167.227-.551.31-.683.544-.558.989-.866,2.222-2.381,2.136a7.489,7.489,0,0,1-1.384,1.743c-.662.459-.274,1.536-.732,1.577-1.04.092-.422.875-.721,1.224-.76.772-1.583-1.02-2.411.061a8.409,8.409,0,0,1,2.077-4.374C3.589,81.325,4.9,79.562,6.308,77.87s3.091-3.136,4.635-4.707c.484-.493.91-1.043,1.363-1.567a5.366,5.366,0,0,0,2.148-1.5,6.15,6.15,0,0,1,1.212-1.183c.51-.315.282-1.122,1.15-1.276.573-.1.991-.957,1.524-1.42.509-.44,1.147-.745,1.6-1.228A7.03,7.03,0,0,1,21.422,63.5a4.362,4.362,0,0,0,1.495-1.488,7.544,7.544,0,0,1,2.3-2.153c.671-.486,1.272-1.025,1.887-1.563.526-.46.931-1.047,1.412-1.542a7.913,7.913,0,0,1,1.635-1.165A10.907,10.907,0,0,0,31.938,53.6c.4-.432.827-1.072,1.307-1.138.662-.092.926-.555,1.386-.813.6-.336.483-1.3,1.3-1.386.151-1.031,1.28-.7,1.778-1.281.717-.835,1.5-1.614,2.265-2.43l.325.368c.635-.768,1.251-1.516,1.873-2.258.114-.137.281-.369.389-.351.783.13,1.091-.508,1.555-.9a12.837,12.837,0,0,1,1.747-1.409,12.879,12.879,0,0,0,2.983-2.529,7.3,7.3,0,0,1,2.217-1.788,1.583,1.583,0,0,0,.919-1.929" transform="translate(49.948 13.797)"/><path class="c" d="M39.676,0a1.583,1.583,0,0,1-.919,1.929,7.3,7.3,0,0,0-2.217,1.788,12.879,12.879,0,0,1-2.983,2.529A12.836,12.836,0,0,0,31.81,7.656c-.464.389-.772,1.026-1.555.9-.108-.018-.275.214-.389.351-.623.742-1.238,1.49-1.873,2.258l-.325-.368c-.766.816-1.548,1.595-2.265,2.43-.5.581-1.627.25-1.778,1.281-.818.088-.7,1.05-1.3,1.386-.46.258-.724.721-1.386.813-.48.066-.907.706-1.307,1.138a10.908,10.908,0,0,1-1.786,1.983A7.913,7.913,0,0,0,16.21,20.99c-.481.5-.886,1.082-1.412,1.542-.615.537-1.215,1.077-1.887,1.563a7.544,7.544,0,0,0-2.3,2.153,4.362,4.362,0,0,1-1.495,1.488A7.03,7.03,0,0,0,7.638,29.23c-.456.483-1.094.788-1.6,1.228-.533.463-.952,1.319-1.524,1.42-.868.154-.64.96-1.15,1.276a6.15,6.15,0,0,0-1.212,1.183A5.366,5.366,0,0,1,0,35.837c.05-.405-.04-.931.181-1.19.382-.447,1.012-.674,1.435-1.1S2.28,32.522,2.7,32.1s1.082-.632,1.444-1.088a39.388,39.388,0,0,1,3.014-2.97c1.046-1.065,2.084-2.138,3.168-3.162,1.883-1.779,3.7-3.65,5.733-5.237,1.333-1.038,2.4-2.347,3.726-3.336,2.486-1.847,4.6-4.123,7.121-5.931,1.4-1.007,2.609-2.292,3.915-3.439A65.857,65.857,0,0,1,36.913,2.09,23.283,23.283,0,0,0,38.749.317,2.676,2.676,0,0,1,39.676,0" transform="translate(62.254 49.557)"/></g><g transform="translate(25.993 648)"><path d="M6.711,34.452a2.148,2.148,0,0,1-.706-.151,8.027,8.027,0,0,1-4.172-3.8c-2.444-5-2.444-10.148,0-15.732a33.129,33.129,0,0,1,8.4-12.154c1.735-1.52,3.873-1.967,5.941-2.4.243-.051.485-.1.727-.153A2.682,2.682,0,0,1,17.467,0c1.685,0,3.377,1.615,3.853,3.677a23.125,23.125,0,0,1,.453,4.706,43.18,43.18,0,0,1-6.406,20.992,15.069,15.069,0,0,1-4.19,4.135,2.682,2.682,0,0,1-1.631.443c-.222,0-.449-.012-.668-.025-.243-.014-.461-.026-.677-.026-.1,0-.186,0-.273.007H7.92a1.079,1.079,0,0,1-.369-.133l-.033-.016a1.184,1.184,0,0,0-.451-.148.221.221,0,0,0-.179.075c-.1.112-.115.349-.057.724a.018.018,0,0,1,0,.015C6.813,34.444,6.774,34.452,6.711,34.452Zm5.238-27.17c-.3,0-.471.241-.638.474-.041.057-.083.115-.125.168a38.471,38.471,0,0,0-5.14,8.585,20,20,0,0,0-1.819,5.94,3.591,3.591,0,0,0,.758,2.831,2.79,2.79,0,0,0,2.115.9A4.275,4.275,0,0,0,8.782,25.8a8.6,8.6,0,0,0,3.793-3.189A30.9,30.9,0,0,0,17.187,9.6c0-.15,0-.3.006-.437.021-1.02.036-1.757-.969-2.052a1.722,1.722,0,0,0-.481-.078c-.663,0-.918.531-1.187,1.092-.05.1-.1.213-.156.316-.025.048-.05.1-.076.15-.159.323-.339.689-.774.689a.865.865,0,0,1-.1-.006c-.652-.077-.818-.614-.89-1.072-.01-.06-.016-.122-.022-.188-.03-.3-.062-.613-.411-.709A.664.664,0,0,0,11.949,7.281Z" transform="translate(0 11.92)"/><path d="M6.832,30.54c-2.051,0-3.882-1.5-5.157-4.218A19.443,19.443,0,0,1,0,18.049,24.075,24.075,0,0,1,4.654,2.881,8.741,8.741,0,0,1,7.129.427,2.791,2.791,0,0,1,8.56,0a2.052,2.052,0,0,1,2.007,1.6c.238.853.637,1.059,1.443,1.2,3.6.616,6.085,3.252,6.19,6.558a27.256,27.256,0,0,1-1.524,10.127,25.284,25.284,0,0,1-5.349,8.7A6.363,6.363,0,0,1,6.832,30.54ZM4.627,10.31a12.946,12.946,0,0,0,.724,10.375c.677,1.257,1.467,1.894,2.35,1.894a3.389,3.389,0,0,0,2.428-1.5A15.35,15.35,0,0,0,12.77,15.8c.894-2.836-.086-4.8-2.911-5.84A2.54,2.54,0,0,0,9,9.781c-.606,0-.972.382-1.121,1.166-.163.858-.487,1.844-1.551,1.844l-.078,0c-.957-.042-1.094-.8-1.228-1.541-.034-.185-.068-.377-.116-.55a.47.47,0,0,0-.08-.122C4.782,10.521,4.721,10.44,4.627,10.31Z" transform="translate(110.348 3.127)"/><path d="M6.157,30.639a4.194,4.194,0,0,1-3.728-2.477C-.052,23.616-.625,19.3.677,14.965a28.863,28.863,0,0,1,5.9-11c.329-.374.824-.872,1.321-.872a.736.736,0,0,1,.2.027,1.855,1.855,0,0,0,.492.072c.767,0,1.142-.6,1.473-1.129l.063-.1A3.9,3.9,0,0,1,13.641,0a6.446,6.446,0,0,1,1.08.1,5.075,5.075,0,0,1,4.409,3.481,8.469,8.469,0,0,1,.3,3.914c-.259,5.516-2.406,10.6-4.582,15.325-1.094,2.378-2.763,5.329-5.975,7.055A5.791,5.791,0,0,1,6.157,30.639ZM8.3,7.689c-.323,0-.531.309-.625.493-1.641,3.173-3.5,6.77-3.889,10.95.069,1.174.318,2.6,1.637,3.233a1.57,1.57,0,0,0,.68.163A3.3,3.3,0,0,0,8.21,21.2l.087-.09A24.74,24.74,0,0,0,14.414,9.728c.241-.959-.2-1.593-1.393-1.994a2.337,2.337,0,0,0-.737-.142c-.544,0-.916.315-1.173.992-.237.627-.551,1.295-1.288,1.295a1.348,1.348,0,0,1-.188-.014c-.553-.078-.634-.518-.713-.944a2.406,2.406,0,0,0-.13-.5,1.154,1.154,0,0,1-.066-.261c-.035-.206-.072-.42-.341-.464A.521.521,0,0,0,8.3,7.689Z" transform="translate(72.159 14.268)"/><path d="M6.113,32.762A5.876,5.876,0,0,1,3.133,32a3.247,3.247,0,0,1-1-1.083A2.731,2.731,0,0,0,.952,29.758c.777-.844.3-1.386-.157-1.91a1.937,1.937,0,0,1-.575-.977c-.383-3.517-.493-7.676,1.6-11.863A25.812,25.812,0,0,1,9.505,5.584a1.25,1.25,0,0,0,.511-1.018A6.229,6.229,0,0,1,10.38,2.8C11.139.967,12.216,0,13.5,0a4.612,4.612,0,0,1,2.931,1.393,9.528,9.528,0,0,1,3.211,7.742c-.111,4.84-1.762,9.264-3.443,13.381a28.691,28.691,0,0,1-4.936,8.034A6.929,6.929,0,0,1,6.113,32.762Zm4.8-23.53a1.717,1.717,0,0,0-1.164.727c-.059.063-.118.126-.177.186a22.572,22.572,0,0,0-3.84,5.063l-.058.109c-1.066,1.979-2.168,4.026-1.88,6.451l.018.152c.178,1.518.362,3.087,2.008,3.578a3,3,0,0,0,.857.129c1.32,0,2.39-.946,3.349-1.968a.967.967,0,0,0,.1-.134,1.212,1.212,0,0,1,.079-.112c2.6-3.135,3.683-6.978,4.5-10.334a5.605,5.605,0,0,0-1.657-5.529,1.93,1.93,0,0,0-.528,1.179c-.011.062-.021.123-.033.184-.075.383-.3.631-.575.631a.573.573,0,0,1-.291-.087A1.384,1.384,0,0,0,10.915,9.232Z" transform="translate(98.839 42.965)"/><path d="M3.436,30.606c-.907,0-1.424-.725-1.849-1.508a13,13,0,0,1-1.3-8.987A48.137,48.137,0,0,1,7.335,2.921,13.209,13.209,0,0,1,9.582.466,1.518,1.518,0,0,1,10.556,0c.488,0,.864.417,1.058,1.174.019.076.034.156.049.233.066.347.134.706.614.838,2.054.564,2.55,2.276,3.029,3.932.066.228.134.464.205.691a7.1,7.1,0,0,1,.215,1.8c.014.35.03.746.067,1.178A35.005,35.005,0,0,1,11.066,25.3c-.178.306-.379.606-.572.9s-.392.589-.571.894a7.055,7.055,0,0,1-6.445,3.516ZM9.9,8.058a1.85,1.85,0,0,0-1.89,1.219,5.327,5.327,0,0,1-.657,1.2C5.074,13.492,4.339,17.1,3.629,20.588c-.091.446-.185.908-.281,1.362.01.131.015.267.02.4.024.657.05,1.336.708,1.659a.977.977,0,0,0,.432.105,2.051,2.051,0,0,0,1.2-.621c.086-.071.167-.137.249-.2A8.112,8.112,0,0,0,7.873,21.14a27.9,27.9,0,0,0,3.979-10.594c.222-1.436-.034-2.2-.783-2.348A6.275,6.275,0,0,0,9.9,8.058Z" transform="translate(27.746 33.062)"/><path d="M4.187,27.48a4.28,4.28,0,0,1-1.339-.235c.675-.315,1.025-.669,1.012-1.025s-.384-.7-.994-.932C.929,24.55.587,22.9.257,21.308c-.045-.218-.091-.44-.14-.655a7.726,7.726,0,0,1,.255-3.6A49.466,49.466,0,0,1,7.016,2.5a5.406,5.406,0,0,1,.856-.958A5.278,5.278,0,0,0,8.81.464.905.905,0,0,1,9.58,0a.9.9,0,0,1,.287.049c.42.143.577.427.525.951a2.654,2.654,0,0,0,.973,2.253c1.878,1.846,1.654,4.406,1.474,6.462a34.108,34.108,0,0,1-5.5,15.7A3.71,3.71,0,0,1,4.187,27.48Zm.4-15.686a.238.238,0,0,0-.208.181.3.3,0,0,0,.109.343c.96.71.622,1.473.3,2.211-.067.151-.136.306-.191.457a8.691,8.691,0,0,0-.532,5.437A8.174,8.174,0,0,0,5.94,17.651c.145-.3.295-.607.455-.9A20.093,20.093,0,0,0,8.51,9.611c.052-.388.048-.853-.457-1a.677.677,0,0,0-.192-.03c-.345,0-.551.306-.732.577l-.018.027a1.721,1.721,0,0,0-.178.439c-.067.22-.131.428-.272.5-.3.148-.421.526-.533.892-.143.468-.292.951-.838.951a1.728,1.728,0,0,1-.642-.154A.173.173,0,0,0,4.583,11.794Z" transform="translate(49.333 59.083)"/><path d="M6.236,11.764l-.411-1.431a15.153,15.153,0,0,0-2.759,5.313A1.79,1.79,0,0,0,5,17.916,3.824,3.824,0,0,0,8,16.072a21.566,21.566,0,0,0,3.18-9.12,5.391,5.391,0,0,0-.565-3.3c-.513-.909.525-3.2,1.6-3.546,1.341-.432,1.978.538,2.435,1.516.9,1.927.586,4.018.4,6A29.892,29.892,0,0,1,10.969,20.24c-1.03,1.734-2.212,3.327-4.407,3.643-3.739.536-5.272.143-6.243-3.613C-.962,15.32,1.753,8.454,5.973,5.485A1.56,1.56,0,0,1,7.52,5.114c.693.268.592.9.616,1.425.087,1.939-.781,3.593-1.516,5.281l-.383-.055" transform="translate(42.493 0)"/><path d="M2.377,25.8C1.18,25.9.3,25.431.252,24.288c-.093-2.018-.542-3.9.046-6.109A33.374,33.374,0,0,1,4.9,8.008c.923-1.372.547-2.9,1.129-4.269A8.739,8.739,0,0,1,7.98.7c.582-.553,1.2-.968,2.031-.491a2.071,2.071,0,0,1,1.153,2.016c.3,6.738-2.247,12.746-4.519,18.838A15.62,15.62,0,0,1,4.5,24.723,2.226,2.226,0,0,1,2.377,25.8" transform="translate(72.216 78.02)"/><path d="M6.113,32.762A5.876,5.876,0,0,1,3.133,32a3.247,3.247,0,0,1-1-1.083A2.731,2.731,0,0,0,.952,29.758c.777-.844.3-1.386-.157-1.91a1.937,1.937,0,0,1-.575-.977c-.383-3.517-.493-7.676,1.6-11.863A25.812,25.812,0,0,1,9.505,5.584a1.25,1.25,0,0,0,.511-1.018A6.229,6.229,0,0,1,10.38,2.8C11.139.967,12.216,0,13.5,0a4.612,4.612,0,0,1,2.931,1.393,9.528,9.528,0,0,1,3.211,7.742c-.111,4.84-1.762,9.264-3.443,13.381a28.691,28.691,0,0,1-4.936,8.034A6.929,6.929,0,0,1,6.113,32.762Zm4.8-23.53a1.717,1.717,0,0,0-1.164.727c-.059.063-.118.126-.177.186a22.572,22.572,0,0,0-3.84,5.063l-.058.109c-1.066,1.979-2.168,4.026-1.88,6.451l.018.152c.178,1.518.362,3.087,2.008,3.578a3,3,0,0,0,.857.129c1.32,0,2.39-.946,3.349-1.968a.967.967,0,0,0,.1-.134,1.212,1.212,0,0,1,.079-.112c2.6-3.135,3.683-6.978,4.5-10.334a5.605,5.605,0,0,0-1.657-5.529,1.93,1.93,0,0,0-.528,1.179c-.011.062-.021.123-.033.184-.075.383-.3.631-.575.631a.573.573,0,0,1-.291-.087A1.384,1.384,0,0,0,10.915,9.232Z" transform="translate(98.839 42.965)"/></g></g></svg>