<svg xmlns="http://www.w3.org/2000/svg" viewBox="0 0 413.14 338.49"><defs><style>.cls-1{fill:#e535ab;fill-rule:evenodd;}</style></defs><title>Recurso 1</title><g id="Capa_2" data-name="Capa 2"><g id="Capa_1-2" data-name="Capa 1"><path d="M244.8,95.54l15-23.5a46.77,46.77,0,0,0,6.33-35.84A45.28,45.28,0,0,0,246.3,7.59l-.51-.32a46.89,46.89,0,0,0-64.61,14.49l-15,23.5a19,19,0,0,0-24.48,7.08l-33.75,52.79a19.31,19.31,0,0,0,5.68,26.68l74.72,47.77a19.31,19.31,0,0,0,26.6-6l33.75-52.79A19.14,19.14,0,0,0,244.8,95.54ZM187.44,25.76l0,0c11.75-18.37,36.18-23.94,54.39-12.29l0,0a38.67,38.67,0,0,1,17,24.26A39.51,39.51,0,0,1,253.51,68l-15,23.54-6.92-4.43,15-23.53a31.44,31.44,0,0,0,4.34-24,30.29,30.29,0,0,0-13.24-19l-.19-.12a31.26,31.26,0,0,0-43.11,9.75L179.32,53.72l-6.92-4.43,15-23.53Zm52.88,33.81-15,23.53L185.64,57.76l15-23.53a23.78,23.78,0,0,1,32.8-7.49l.19.12a22.91,22.91,0,0,1,10,14.37A24.07,24.07,0,0,1,240.32,59.57ZM208.86,169.79h0a11.85,11.85,0,0,1-16.35,3.6L117.76,125.6a11.85,11.85,0,0,1-3.6-16.35l33.71-52.73a11.85,11.85,0,0,1,16.35-3.59L239,100.71a11.85,11.85,0,0,1,3.6,16.35l-33.71,52.73Z"/><path class="cls-1" d="M124.58,130.53l48.3,27.89a20.56,20.56,0,0,1,4.75-3.76,20.94,20.94,0,1,1,20.93,36.28,20.73,20.73,0,0,1-5.58,2.22V249a20.94,20.94,0,1,1-20.59,34.29l-48,27.72a20.92,20.92,0,1,1-40,.67L36.15,283.76a21.22,21.22,0,0,1-4.69,3.69,20.95,20.95,0,0,1-20.93-36.29A21.26,21.26,0,0,1,16.05,249V193.16a20.94,20.94,0,1,1,15.35-38.5,21.1,21.1,0,0,1,4.73,3.73L84.44,130.5a20.68,20.68,0,0,1-.85-6,20.93,20.93,0,0,1,41.86,0,20.69,20.69,0,0,1-.87,6Zm-5,8.59L168,167.07A20.91,20.91,0,0,0,183,193.12V249l-.81.22L119,139.68l.56-.56Zm-29.49.57L26.83,249.2,26,249V193.12A20.91,20.91,0,0,0,41.06,167l48.4-27.94c.19.2.39.4.6.59Zm20.31,5,63.21,109.48a20.88,20.88,0,0,0-5.89,10.22H41.35a20.65,20.65,0,0,0-2.21-5.52,21.12,21.12,0,0,0-3.68-4.68l63.23-109.5a20.84,20.84,0,0,0,5.83.82A21.31,21.31,0,0,0,110.37,144.66ZM120,303.45l48.09-27.77c-.14-.45-.27-.91-.38-1.37H41.32c-.06.27-.14.54-.21.81L89.44,303a21,21,0,0,1,30.56.42Z"/><path d="M288.15,103.55c-.51,0-2.11.21-3.56.32-33.32,3-64.54,21-84.31,48.62a116.27,116.27,0,0,0-20.71,51.26c-.94,6.45-1,8.35-1,17.09s.11,10.64,1,17.08a117.8,117.8,0,0,0,80.25,94.79,124.43,124.43,0,0,0,24.77,5.14,216.11,216.11,0,0,0,22.48,0,118.55,118.55,0,0,0,42.26-12.36c2-1,2.41-1.31,2.14-1.54s-8.79-11.67-19.11-25.62L313.6,273,290.09,238.2c-12.93-19.13-23.57-34.77-23.66-34.77s-.19,15.43-.23,34.31c-.07,33.05-.09,34.38-.51,35.16a4.1,4.1,0,0,1-2,2.08c-.73.37-1.37.44-4.83.44h-4l-1.06-.66a4.24,4.24,0,0,1-1.53-1.68l-.49-1,.05-46,.07-46,.71-.89a6.06,6.06,0,0,1,1.7-1.4c.94-.46,1.3-.51,5.27-.51,4.68,0,5.46.19,6.68,1.52.34.36,13.07,19.54,28.3,42.63s36.05,54.63,46.28,70.11l18.57,28.14.95-.62a120.6,120.6,0,0,0,24.1-21.14,116.77,116.77,0,0,0,27.61-60c.94-6.44,1.06-8.35,1.06-17.08s-.12-10.64-1.06-17.09A117.8,117.8,0,0,0,331.83,109a123.17,123.17,0,0,0-24.42-5.11c-2.2-.23-17.36-.48-19.26-.3Zm48,71a4.68,4.68,0,0,1,2.32,2.71c.18.59.23,13.34.18,42.08l-.07,41.24-7.27-11.15L324,238.24v-30c0-19.38.09-30.27.23-30.8a4.63,4.63,0,0,1,2.27-2.89c.94-.48,1.28-.53,4.88-.53,3.4,0,4,0,4.75.46Z"/></g></g></svg>